<?xml version="1.0" standalone="no"?>
<!DOCTYPE svg PUBLIC "-//W3C//DTD SVG 20010904//EN"
 "http://www.w3.org/TR/2001/REC-SVG-20010904/DTD/svg10.dtd">
<svg version="1.0" xmlns="http://www.w3.org/2000/svg"
 width="22.000000pt" height="18.000000pt" viewBox="0 0 22.000000 18.000000"
 preserveAspectRatio="xMidYMid meet">

<g transform="translate(0.000000,18.000000) scale(0.100000,-0.100000)"
fill="#000000" stroke="none">
<path d="M12 168 c-16 -16 -16 -140 0 -156 16 -16 180 -16 196 0 16 16 16 140
0 156 -16 16 -180 16 -196 0z m188 -78 l0 -70 -90 0 -90 0 0 70 0 70 90 0 90
0 0 -70z"/>
<path d="M141 119 c-29 -18 -34 -18 -54 -4 -12 8 -28 15 -37 15 -8 0 0 -10 18
-21 34 -22 62 -21 96 6 30 23 14 26 -23 4z"/>
</g>
</svg>
