<?xml version="1.0" standalone="no"?>
<!DOCTYPE svg PUBLIC "-//W3C//DTD SVG 20010904//EN"
 "http://www.w3.org/TR/2001/REC-SVG-20010904/DTD/svg10.dtd">
<svg version="1.0" xmlns="http://www.w3.org/2000/svg"
 width="171.000000pt" height="28.000000pt" viewBox="0 0 171.000000 28.000000"
 preserveAspectRatio="xMidYMid meet">

<g transform="translate(0.000000,28.000000) scale(0.100000,-0.100000)"
fill="#000000" stroke="none">
<path d="M80 255 c-24 -14 -23 -14 32 -15 66 0 97 8 76 21 -20 13 -80 10 -108
-6z"/>
<path d="M271 260 c26 -4 58 -16 73 -25 14 -10 26 -14 26 -11 0 17 -68 46
-105 45 l-40 -1 46 -8z"/>
<path d="M460 200 c0 -27 5 -50 10 -50 6 0 10 7 10 15 0 8 5 15 10 15 6 0 13
-7 16 -15 7 -16 34 -21 34 -6 0 5 -7 14 -15 21 -19 16 -19 29 2 52 21 24 -3
25 -29 1 -17 -15 -18 -15 -18 0 0 10 -4 17 -10 17 -5 0 -10 -22 -10 -50z"/>
<path d="M571 213 c-7 -21 -15 -44 -17 -50 -3 -7 1 -13 10 -13 9 0 16 5 16 10
0 14 33 13 48 -2 21 -21 25 1 8 47 -22 57 -48 60 -65 8z m39 -8 c0 -8 -4 -15
-10 -15 -5 0 -7 7 -4 15 4 8 8 15 10 15 2 0 4 -7 4 -15z"/>
<path d="M660 240 c0 -5 9 -10 21 -10 l20 0 -20 -29 c-32 -44 -27 -51 34 -50
30 1 55 6 55 10 0 13 34 11 48 -3 21 -21 25 1 8 47 -23 58 -48 61 -65 5 -10
-33 -16 -40 -36 -40 -29 0 -30 7 -10 34 24 32 18 46 -20 46 -19 0 -35 -4 -35
-10z m136 -47 c-10 -10 -19 5 -10 18 6 11 8 11 12 0 2 -7 1 -15 -2 -18z"/>
<path d="M850 200 c0 -48 14 -67 27 -35 5 14 8 14 24 -1 25 -23 35 -11 16 17
-14 19 -14 24 0 45 14 22 14 24 0 24 -9 0 -21 -8 -26 -17 -10 -17 -10 -17 -11
0 0 9 -7 17 -15 17 -11 0 -15 -12 -15 -50z"/>
<path d="M950 200 c0 -27 5 -50 10 -50 6 0 10 9 10 20 0 13 7 20 19 20 10 0
21 -9 24 -20 10 -39 27 -20 27 30 0 38 -4 50 -15 50 -8 0 -15 -9 -15 -20 0
-12 -7 -20 -16 -20 -9 0 -18 9 -21 20 -10 37 -23 20 -23 -30z"/>
<path d="M1050 240 c0 -5 7 -10 15 -10 11 0 15 -11 15 -40 0 -22 5 -40 10 -40
6 0 10 18 10 40 0 29 4 40 15 40 8 0 15 5 15 10 0 6 -18 10 -40 10 -22 0 -40
-4 -40 -10z"/>
<path d="M1140 200 l0 -50 35 0 c19 0 35 5 35 10 0 6 -9 10 -20 10 -11 0 -20
5 -20 10 0 6 9 10 20 10 11 0 20 5 20 10 0 6 -9 10 -20 10 -11 0 -20 5 -20 10
0 6 9 10 20 10 11 0 20 5 20 10 0 6 -16 10 -35 10 l-35 0 0 -50z"/>
<path d="M1222 203 c3 -46 4 -48 36 -51 18 -2 32 1 32 7 0 6 -9 11 -20 11 -17
0 -20 7 -20 40 0 30 -4 40 -16 40 -12 0 -14 -10 -12 -47z"/>
<path d="M1300 200 l0 -50 35 0 c19 0 35 5 35 10 0 6 -9 10 -19 10 -11 0 -23
5 -26 10 -4 6 5 10 19 10 14 0 26 5 26 10 0 6 -9 10 -19 10 -11 0 -23 5 -26
10 -4 6 5 10 19 10 14 0 26 5 26 10 0 6 -16 10 -35 10 l-35 0 0 -50z"/>
<path d="M1392 238 c-28 -28 -3 -88 36 -88 25 0 46 16 37 29 -5 9 -11 9 -22
-1 -12 -10 -18 -9 -29 7 -19 25 0 49 34 40 17 -4 23 -2 20 7 -6 17 -60 22 -76
6z"/>
<path d="M1492 238 c-27 -27 -3 -88 34 -88 31 0 54 21 54 48 0 35 -16 52 -50
52 -14 0 -31 -5 -38 -12z m65 -24 c3 -8 -2 -23 -11 -32 -16 -16 -18 -16 -31 2
-11 14 -12 23 -4 33 15 18 38 16 46 -3z"/>
<path d="M1590 200 c0 -38 4 -50 15 -50 10 0 15 10 15 28 l1 27 13 -30 13 -30
16 30 16 30 1 -27 c0 -16 5 -28 10 -28 6 0 10 23 10 50 0 39 -3 50 -16 50 -9
0 -18 -9 -21 -20 -3 -11 -9 -20 -13 -20 -5 0 -12 9 -15 20 -3 11 -15 20 -26
20 -16 0 -19 -7 -19 -50z"/>
<path d="M263 220 c44 -11 95 -37 115 -57 18 -17 26 -11 18 15 -9 26 -50 43
-116 48 -52 3 -53 3 -17 -6z"/>
<path d="M27 213 c-17 -16 -3 -23 52 -23 40 0 63 5 71 15 11 13 4 15 -52 15
-36 0 -68 -3 -71 -7z"/>
<path d="M199 180 c78 -12 138 -38 162 -71 24 -34 24 -34 -28 -9 -49 23 -116
40 -158 39 -19 -1 -23 -3 -10 -5 74 -16 113 -32 152 -61 l43 -33 20 32 c11 18
20 39 20 45 0 29 -144 75 -224 72 -20 -1 -12 -4 23 -9z"/>
<path d="M10 165 c0 -13 11 -15 62 -13 38 2 63 8 66 16 3 9 -14 12 -62 12 -53
0 -66 -3 -66 -15z"/>
<path d="M10 115 c0 -12 13 -15 66 -15 48 0 65 3 62 13 -3 7 -28 13 -66 15
-51 2 -62 0 -62 -13z"/>
<path d="M460 71 c0 -39 2 -41 30 -41 29 0 30 2 28 37 -3 33 -7 38 -31 41 -25
3 -27 1 -27 -37z m45 19 c3 -5 -3 -10 -14 -10 -12 0 -21 5 -21 10 0 6 6 10 14
10 8 0 18 -4 21 -10z m5 -40 c0 -5 -9 -10 -20 -10 -11 0 -20 5 -20 10 0 6 9
10 20 10 11 0 20 -4 20 -10z"/>
<path d="M194 82 c27 -9 62 -29 78 -44 26 -24 33 -26 51 -16 21 11 18 13 -38
39 -33 15 -78 30 -100 33 l-40 5 49 -17z"/>
<path d="M22 78 c3 -8 29 -14 73 -16 61 -3 67 -1 55 13 -16 19 -134 22 -128 3z"/>
<path d="M541 63 c-1 -29 2 -33 24 -33 22 0 25 4 24 33 -2 30 -2 30 -6 5 -6
-36 -30 -36 -36 0 -4 25 -4 25 -6 -5z"/>
<path d="M610 75 c0 -9 8 -19 17 -22 15 -6 15 -7 -3 -14 -17 -7 -17 -8 4 -8
26 -1 29 16 5 36 -17 14 -17 14 0 9 11 -3 16 -2 12 4 -10 16 -35 12 -35 -5z"/>
<path d="M672 60 c0 -19 2 -27 5 -17 2 9 2 25 0 35 -3 9 -5 1 -5 -18z"/>
<path d="M701 56 c1 -27 2 -28 7 -8 9 30 25 30 34 0 6 -19 7 -18 5 7 -2 23 -7
30 -24 31 -19 1 -23 -4 -22 -30z"/>
<path d="M771 77 c-18 -22 -3 -47 28 -46 l26 1 -25 8 c-25 8 -25 8 -2 9 17 1
22 6 20 18 -4 23 -31 28 -47 10z m34 -7 c3 -5 -1 -10 -9 -10 -9 0 -16 5 -16
10 0 6 4 10 9 10 6 0 13 -4 16 -10z"/>
<path d="M837 83 c-12 -12 -7 -22 16 -29 l22 -8 -25 -7 -25 -7 28 -1 c18 -1
27 4 27 14 0 8 -7 15 -15 15 -18 0 -20 16 -2 23 8 4 6 6 -4 6 -9 1 -19 -2 -22
-6z"/>
<path d="M895 80 c-9 -14 3 -30 23 -31 11 -1 8 -4 -8 -9 l-25 -8 28 -1 c18 -1
27 4 27 14 0 8 -7 15 -15 15 -18 0 -20 16 -2 23 7 3 6 6 -5 6 -9 1 -20 -3 -23
-9z"/>
<path d="M80 25 c26 -15 77 -19 105 -9 30 12 -6 24 -70 23 -57 0 -59 0 -35
-14z"/>
<path d="M226 25 c4 -8 16 -15 28 -15 21 1 21 1 2 15 -25 19 -37 19 -30 0z"/>
</g>
</svg>
