<?xml version="1.0" standalone="no"?>
<!DOCTYPE svg PUBLIC "-//W3C//DTD SVG 20010904//EN"
 "http://www.w3.org/TR/2001/REC-SVG-20010904/DTD/svg10.dtd">
<svg version="1.0" xmlns="http://www.w3.org/2000/svg"
 width="18.000000pt" height="20.000000pt" viewBox="0 0 18.000000 20.000000"
 preserveAspectRatio="xMidYMid meet">

<g transform="translate(0.000000,20.000000) scale(0.100000,-0.100000)"
fill="#000000" stroke="none">
<path d="M60 180 c-11 -11 -20 -24 -20 -30 0 -13 37 -50 50 -50 13 0 50 37 50
50 0 13 -37 50 -50 50 -5 0 -19 -9 -30 -20z m55 -30 c0 -18 -6 -26 -23 -28
-13 -2 -25 3 -28 12 -10 26 4 48 28 44 17 -2 23 -10 23 -28z"/>
<path d="M50 73 c-27 -10 -50 -36 -50 -55 0 -10 5 -18 10 -18 6 0 10 9 10 20
0 24 28 40 70 40 42 0 70 -16 70 -40 0 -11 5 -20 10 -20 17 0 11 36 -9 54 -20
19 -85 30 -111 19z"/>
</g>
</svg>
